<?xml version="1.0" standalone="no"?><!DOCTYPE svg PUBLIC "-//W3C//DTD SVG 1.1//EN" "http://www.w3.org/Graphics/SVG/1.1/DTD/svg11.dtd"><svg t="1727278190037" class="icon" viewBox="0 0 1024 1024" version="1.1" xmlns="http://www.w3.org/2000/svg" p-id="14563" xmlns:xlink="http://www.w3.org/1999/xlink" width="24" height="24"><path d="M623.5 957.6h-226c-27.7 0-50.3-22.6-50.3-50.3 0-27.7 22.6-50.3 50.3-50.3h226c27.7 0 50.3 22.6 50.3 50.3 0 27.7-22.7 50.3-50.3 50.3z" fill="#00EFEF" p-id="14564"></path><path d="M510.4 812.3c-82.5 0-161.9-61.6-223.7-173.6-47.9-86.9-78.9-194.1-78.9-273.1C207.8 198.8 343.5 63 510.4 63S813 198.8 813 365.6c0 79-31 186.2-78.9 273.1-61.8 112-141.2 173.6-223.7 173.6z m0-634c-103.3 0-187.3 84-187.3 187.3 0 125.9 104.6 331.4 187.3 331.4s187.3-205.5 187.3-331.4c0-103.2-84-187.3-187.3-187.3z" fill="#52A9FF" p-id="14565"></path><path d="M510.4 359.6m-79.2 0a79.2 79.2 0 1 0 158.4 0 79.2 79.2 0 1 0-158.4 0Z" fill="#00EFEF" p-id="14566"></path></svg>